<?xml version="1.0" encoding="utf-8"?>
<!-- Generator: Adobe Illustrator 28.0.0, SVG Export Plug-In . SVG Version: 6.00 Build 0)  -->
<svg version="1.1" id="Capa_1" xmlns="http://www.w3.org/2000/svg" xmlns:xlink="http://www.w3.org/1999/xlink" x="0px" y="0px"
	 viewBox="0 0 147.4 147.4" style="enable-background:new 0 0 147.4 147.4;" xml:space="preserve">
<style type="text/css">
	.st0{fill:#FFFFFF;}
	.st1{fill:#D1D1D1;}
	.st2{fill:#5C5C5C;}
	.st3{fill:#2B2C2C;}
	.st4{fill:#020203;}
	.st5{fill:#6A6A69;}
</style>
<g>
	<rect x="24.5" y="9.9" class="st0" width="118.3" height="109"/>
	<polygon class="st1" points="86.7,45.1 71.9,118.9 87,118.9 	"/>
	<polygon class="st2" points="81.9,64.7 41.6,31.1 41.6,49.6 1,49.6 1,79.9 41.6,79.9 41.6,98.4 	"/>
	<g>
		<polygon class="st3" points="146.4,123.4 24,123.4 24,86.7 35,86.7 35,112.4 135.4,112.4 135.4,16.7 35,16.7 35,42.4 24,42.4 
			24,5.7 146.4,5.7 		"/>
	</g>
	<polygon class="st4" points="86.8,45.1 137.6,15.9 137.6,113.8 86.8,143 	"/>
	<path class="st5" d="M1,73.4c24.9-2.6,47.7-9.8,67-20.3l-26.4-22v18.4H1V73.4z"/>
	<path class="st2" d="M24,42.4h11V16.7h76.2c2.6-3.6,5-7.2,7.1-11H24V42.4z"/>
</g>
</svg>
