<?xml version="1.0" encoding="utf-8"?>
<!-- Generator: Adobe Illustrator 28.0.0, SVG Export Plug-In . SVG Version: 6.00 Build 0)  -->
<svg version="1.1" id="Capa_1" xmlns="http://www.w3.org/2000/svg" xmlns:xlink="http://www.w3.org/1999/xlink" x="0px" y="0px"
	 viewBox="0 0 147.4 147.4" style="enable-background:new 0 0 147.4 147.4;" xml:space="preserve">
<style type="text/css">
	.st0{fill:#FFFFFF;}
	.st1{fill:#020203;}
	.st2{fill:#020203;stroke:#5C5C5C;stroke-miterlimit:10;}
	.st3{fill:#2B2C2C;}
</style>
<g>
	<rect x="3.4" y="27.4" class="st0" width="101.1" height="93.2"/>
	<g>
		<polygon class="st1" points="105.7,123.5 1,123.5 1,22.9 105.7,22.9 105.7,54.3 96.3,54.3 96.3,32.3 10.4,32.3 10.4,114.1 
			96.3,114.1 96.3,92.2 105.7,92.2 		"/>
	</g>
	<path class="st2" d="M60.8,86.2h9.8V60.3h-9.8V86.2z M145.6,73.1l-34.5-28.7v15.8H76.4v25.9h34.7v15.8L145.6,73.1z"/>
	<g>
		<path class="st3" d="M70.7,74V60.3h-9.8v19.5C64.2,78,67.5,76.1,70.7,74z"/>
		<path class="st3" d="M76.4,60.2v9.9c4.3-3.1,8.2-6.4,11.8-9.9H76.4z"/>
	</g>
	<path class="st3" d="M105.7,37.4V22.9H1v73.9c0.8-0.1,1.6-0.1,2.4-0.2c2.3-0.2,4.7-0.5,7-0.8V32.3h85.9v19.1
		C99.9,46.9,103.1,42.2,105.7,37.4z"/>
</g>
</svg>
