<?xml version="1.0" encoding="utf-8"?>
<!-- Generator: Adobe Illustrator 28.0.0, SVG Export Plug-In . SVG Version: 6.00 Build 0)  -->
<svg version="1.1" id="Capa_1" xmlns="http://www.w3.org/2000/svg" xmlns:xlink="http://www.w3.org/1999/xlink" x="0px" y="0px"
	 viewBox="0 0 147.4 147.4" style="enable-background:new 0 0 147.4 147.4;" xml:space="preserve">
<style type="text/css">
	.st0{fill:#FFFFFF;}
	.st1{fill:#020203;}
	.st2{fill:#5C5C5C;}
	.st3{fill:#2B2C2C;}
	.st4{fill:#6A6A69;}
</style>
<g>
	<rect x="15.2" y="21" class="st0" width="118.3" height="109"/>
	<g>
		<polygon class="st1" points="137.7,134.5 15.2,134.5 15.2,97.8 26.2,97.8 26.2,123.5 126.7,123.5 126.7,27.8 26.2,27.8 26.2,53.5 
			15.2,53.5 15.2,16.8 137.7,16.8 		"/>
	</g>
	<path class="st2" d="M15.2,91.2h11.5V60.9H15.2V91.2z M114.4,75.9L74,42.3v18.4H33.4v30.4H74v18.4L114.4,75.9z"/>
	<path class="st3" d="M137.7,16.8H15.2v36.7h11V27.8h100.5v13.3c3.9-3.2,7.6-6.6,11-10.1V16.8z"/>
	<g>
		<path class="st4" d="M74,42.3v18.4H33.4v16.2c0.6-0.1,1.3-0.1,1.9-0.2c22.1-2.1,42.6-7.9,60.5-16.3L74,42.3z"/>
		<path class="st4" d="M15.2,77.6c3.8,0,7.6,0,11.5-0.2V60.9H15.2V77.6z"/>
	</g>
</g>
</svg>
