<?xml version="1.0" encoding="utf-8"?>
<!-- Generator: Adobe Illustrator 28.0.0, SVG Export Plug-In . SVG Version: 6.00 Build 0)  -->
<svg version="1.1" id="Capa_1" xmlns="http://www.w3.org/2000/svg" xmlns:xlink="http://www.w3.org/1999/xlink" x="0px" y="0px"
	 viewBox="0 0 147.4 147.4" style="enable-background:new 0 0 147.4 147.4;" xml:space="preserve">
<style type="text/css">
	.st0{fill:#FFFFFF;}
	.st1{fill:#020203;}
	.st2{fill:#2B2C2C;}
	.st3{fill:#D1D1D1;}
	.st4{fill:#5C5C5C;}
	.st5{fill:#6A6A69;}
</style>
<g>
	<rect x="3.4" y="33.6" class="st0" width="102.9" height="94.8"/>
	<polygon class="st1" points="145.4,79.4 110.3,50.2 110.3,66.2 75,66.2 75,92.6 110.3,92.6 110.3,108.6 	"/>
	<g>
		<polygon class="st1" points="107.5,131.4 1,131.4 1,29.1 107.5,29.1 107.5,61 97.9,61 97.9,38.7 10.6,38.7 10.6,121.9 97.9,121.9 
			97.9,99.5 107.5,99.5 		"/>
	</g>
	<path class="st2" d="M1,90.2c3.2-0.5,6.4-1.2,9.6-1.9V38.7h78.4c2.1-3.1,3.9-6.3,5.5-9.6H1V90.2z"/>
	<path class="st3" d="M8.7,122.6c3.6-0.4,39.8-8.8,39.8-8.8l-0.8-13.9L8.7,122.6z"/>
	<polygon class="st4" points="52.8,97.1 8.7,122.6 8.7,37.4 52.8,12 	"/>
	<path class="st5" d="M8.7,88.7c16.3-3.5,31.2-9.4,44.2-17V12L8.7,37.4V88.7z"/>
</g>
</svg>
