<?xml version="1.0" encoding="utf-8"?>
<!-- Generator: Adobe Illustrator 28.0.0, SVG Export Plug-In . SVG Version: 6.00 Build 0)  -->
<svg version="1.1" id="Capa_1" xmlns="http://www.w3.org/2000/svg" xmlns:xlink="http://www.w3.org/1999/xlink" x="0px" y="0px"
	 viewBox="0 0 2035.7 927.1" style="enable-background:new 0 0 2035.7 927.1;" xml:space="preserve">
<style type="text/css">
	.st0{fill:#3B3BBF;}
	.st1{fill:#4F4F64;}
	.st2{fill:#FFFFFF;}
</style>
<g>
	<path class="st0" d="M468.9,664.6C434.1,693,394.5,711,350.4,719c-6.5,1.2-13.2,1.5-19.8,2.5c-3.4,0.5-4.7-0.3-4.6-4
		c0.2-11.3,0.2-22.6,0-34c-0.1-8.2-3.8-14.5-11.2-18.1c-7-3.4-14-2.9-20.3,1.7c-5.8,4.2-8.4,10.1-8.4,17.2c0,10.8-0.2,21.7,0.1,32.5
		c0.1,4.5-1.4,5.1-5.4,4.7c-51.8-5.2-97.9-24.5-138-57.4C96.1,625.6,66.1,576.8,53,517.6c-2.1-9.6-3.5-19.3-4.6-29
		c-0.4-3.6,0.4-5.1,4.4-4.9c5.8,0.3,11.6,0.1,17.5,0.1v0c5.8,0,11.7,0.2,17.5,0c10.6-0.3,19.1-9.2,19-19.8
		c-0.1-10.6-8.6-19.6-19.2-19.8c-11.1-0.2-22.3-0.3-33.4,0c-4.9,0.2-6.2-1.1-5.6-6c4.3-37.5,15.5-72.8,34.9-105.2
		c31.3-52.2,75.6-89.2,132.3-111.2c21.4-8.3,43.6-13.1,66.4-15.4c3.7-0.4,4.1,1,4,4c-0.1,11.5-0.3,23,0,34.5
		c0.4,15.5,16.3,24.8,29.6,17.3c6.9-3.9,10.3-10.1,10.3-18.1c0-10.8,0.2-21.6-0.1-32.5c-0.1-4.3,0.7-5.7,5.4-5
		c65.2,8.4,118.3,33.9,159.1,76.5h53.3c-13.2-17.2-28.5-33.1-45.7-47.8c-1.9-1.6-2.9-3.3-3.4-5.8c-12.1-57.8-24.2-115.6-36.5-173.3
		c-6.2-29.3-31.3-51.2-63-50.6C365.6,6,336,5.5,306.3,5.5c-30,0-59.9,0-89.9,0c-5.2,0-10.3,0.1-15.4,1.4
		c-26.6,6.8-42.1,24-47.7,50.6c-11.8,56.5-23.7,112.9-35.5,169.4c-0.7,3.5-2.2,5.9-4.9,8.2C75.5,267.7,47.1,306.8,28.7,353
		c-17.4,43.5-24,88.7-20.3,135.4c2.1,26.6,7.7,52.3,16.8,77.3c18.3,50.2,48,92.5,88.8,127c2,1.7,3.1,3.6,3.7,6.2
		c12.1,57.9,24.3,115.9,36.6,173.8c2.5,11.8,7.9,22.2,16.3,30.9c12.8,13.1,28.8,18,46.6,18c58.8,0.1,117.5,0,176.3,0
		c34.1,0,57.7-19.5,64.6-52.8c11.7-56.5,23.8-112.9,35.6-169.4c0.7-3.2,2.1-5.3,4.5-7.3c14.7-12.1,27.9-25.7,39.8-40.5
		c1.9-2.3,3.7-4.7,5.5-7.1H491C484.1,651.5,476.7,658.2,468.9,664.6z M171.5,168.3c7.5-34.9,15-69.9,22.6-104.8
		c2.6-12,9.8-18.1,22.1-18.1c60.2-0.1,120.5-0.1,180.8,0c12,0,19.7,6.5,22.2,18.2c9.5,44,19,88.1,28.5,132.1
		c0.3,1.3,0.3,2.6,0.6,4.5c-94.4-46.4-188.4-47.1-283.4,0C167.2,189,169.3,178.6,171.5,168.3z M441,758.2
		c-7.6,35.4-15.2,70.9-22.9,106.3c-2.6,12.2-9.8,18-22.1,18c-60.2,0-120.5,0-180.7,0c-12,0-19.6-6.2-22.2-18
		c-9.5-44.2-19-88.4-28.5-132.6c-0.2-1.1-0.2-2.2-0.4-4.1c94.4,46.7,188.4,47.3,283.4-0.1C445.2,738.4,443.1,748.3,441,758.2z"/>
</g>
<g>
	<path class="st1" d="M191.4,457.6c0-17.1,2.1-33.2,6.4-48.3c4.3-15.1,11.6-28.2,21.9-39.4c10.3-11.2,24.3-20,41.8-26.6
		c17.6-6.5,39.7-9.8,66.4-9.8h13.6c17.1,0,33.7,1.1,49.8,3.2c16.1,2.1,31.9,5.2,47.5,9.2v61.5c-8.8-2.5-17.7-4.6-26.6-6.4
		c-8.9-1.8-17.7-3.2-26.4-4.3s-17-1.9-24.9-2.5c-7.9-0.5-15-0.8-21.3-0.8c-19.6,0-34.7,1.8-45.4,5.5c-10.7,3.6-18.5,8.7-23.4,15.3
		c-4.9,6.5-7.8,14.3-8.7,23.4c-0.9,9-1.3,19-1.3,29.8c0,10.8,0.4,20.7,1.3,29.8c0.9,9,3.8,16.9,8.7,23.6
		c4.9,6.7,12.7,11.8,23.4,15.5c10.7,3.6,25.8,5.5,45.4,5.5c6.3,0,13.4-0.2,21.3-0.8c7.9-0.5,16.2-1.3,24.9-2.5s17.5-2.6,26.4-4.5
		c8.9-1.9,17.8-4.1,26.6-6.6v61.8c-15.6,3.8-31.4,6.7-47.5,8.9c-16.1,2.1-32.7,3.2-49.8,3.2h-13.6c-26.6,0-48.8-3.3-66.4-9.8
		c-17.6-6.5-31.5-15.4-41.8-26.6c-10.3-11.2-17.6-24.3-21.9-39.4c-4.3-15.1-6.4-31.2-6.4-48.3V457.6z"/>
	<path class="st1" d="M476.4,457.6c0-17.1,2.1-33.2,6.4-48.3c4.3-15.1,11.7-28.2,22.4-39.4c10.7-11.2,25.1-20,43.2-26.6
		c18.1-6.5,40.8-9.8,68.2-9.8h13.6c27.4,0,50.1,3.3,68.2,9.8c18.1,6.5,32.5,15.4,43.2,26.6c10.7,11.2,18.2,24.3,22.4,39.4
		c4.3,15.1,6.4,31.2,6.4,48.3v19.6c0,17.1-2.1,33.2-6.4,48.3c-4.3,15.1-11.8,28.2-22.4,39.4c-10.7,11.2-25.1,20-43.2,26.6
		c-18.1,6.5-40.8,9.8-68.2,9.8h-13.6c-27.4,0-50.1-3.3-68.2-9.8c-18.1-6.5-32.5-15.4-43.2-26.6c-10.7-11.2-18.2-24.3-22.4-39.4
		c-4.3-15.1-6.4-31.2-6.4-48.3V457.6z M544.3,467.4c0,9.6,0.4,18.8,1.3,27.7c0.9,8.9,3.8,16.8,8.7,23.6c4.9,6.8,12.7,12.2,23.4,16.2
		c10.7,4,25.9,6,45.8,6c19.9,0,35.1-2,45.8-6c10.7-4,18.5-9.4,23.4-16.2c4.9-6.8,7.8-14.6,8.7-23.6c0.9-8.9,1.3-18.2,1.3-27.7
		c0-9.5-0.4-18.7-1.3-27.5c-0.9-8.8-3.8-16.6-8.7-23.4c-4.9-6.8-12.7-12.2-23.4-16.2c-10.7-4-26-6-45.8-6c-19.9,0-35.1,2-45.8,6
		c-10.7,4-18.5,9.4-23.4,16.2c-4.9,6.8-7.8,14.6-8.7,23.4C544.7,448.7,544.3,457.9,544.3,467.4z"/>
	<path class="st1" d="M1019.7,503.2V341.1h67.9v252.6h-67.9L887.4,431.6v162.1h-67.9V341.1h67.9L1019.7,503.2z"/>
	<path class="st1" d="M1225.1,593.7V401.4h-98v-60.3h264.3v60.3H1293v192.3H1225.1z"/>
	<path class="st1" d="M1625.5,593.7l-50.5-79.2c-13.6,0-26.6-0.1-39.2-0.4c-12.6-0.2-24.9-1.4-36.9-3.4v82.9H1431V341.1
		c21.6-2.5,44.3-4.4,68-5.7c23.8-1.3,47.1-1.9,69.9-1.9h10.6c21.1,0,38.6,2.2,52.4,6.6c13.8,4.4,24.9,10.4,33.2,17.9
		s14.1,16.3,17.3,26.4c3.3,10.1,4.9,20.7,4.9,32v15.1c0,15.8-3.1,30.2-9.4,43.2c-6.3,12.9-17.5,22.9-33.6,30l46.7,73.9v15.1H1625.5z
		 M1569.7,393.9c-8.8,0-19.7,0.3-32.6,0.8c-12.9,0.5-25.7,1.4-38.3,2.6v53.5c11.8,1.5,23,2.5,33.6,2.8c10.6,0.4,19.1,0.6,25.6,0.6
		c15.1,0,26.8-0.7,35.1-2.1c8.3-1.4,14.4-3.5,18.3-6.2c3.9-2.8,6.2-6.3,7-10.6c0.8-4.3,1.1-9.4,1.1-15.5c0-3.3-0.3-6.5-0.8-9.6
		c-0.5-3.1-2.3-6-5.5-8.5c-3.1-2.5-8.1-4.5-14.9-5.8C1591.6,394.6,1582,393.9,1569.7,393.9z"/>
	<path class="st1" d="M1732.2,457.6c0-17.1,2.1-33.2,6.4-48.3c4.3-15.1,11.7-28.2,22.4-39.4c10.7-11.2,25.1-20,43.2-26.6
		c18.1-6.5,40.8-9.8,68.2-9.8h13.6c27.4,0,50.1,3.3,68.2,9.8c18.1,6.5,32.5,15.4,43.2,26.6c10.7,11.2,18.2,24.3,22.4,39.4
		c4.3,15.1,6.4,31.2,6.4,48.3v19.6c0,17.1-2.1,33.2-6.4,48.3c-4.3,15.1-11.8,28.2-22.4,39.4c-10.7,11.2-25.1,20-43.2,26.6
		c-18.1,6.5-40.8,9.8-68.2,9.8h-13.6c-27.4,0-50.1-3.3-68.2-9.8c-18.1-6.5-32.5-15.4-43.2-26.6c-10.7-11.2-18.2-24.3-22.4-39.4
		c-4.3-15.1-6.4-31.2-6.4-48.3V457.6z M1800.1,467.4c0,9.6,0.4,18.8,1.3,27.7c0.9,8.9,3.8,16.8,8.7,23.6
		c4.9,6.8,12.7,12.2,23.4,16.2c10.7,4,25.9,6,45.8,6c19.9,0,35.1-2,45.8-6c10.7-4,18.5-9.4,23.4-16.2c4.9-6.8,7.8-14.6,8.7-23.6
		c0.9-8.9,1.3-18.2,1.3-27.7c0-9.5-0.4-18.7-1.3-27.5c-0.9-8.8-3.8-16.6-8.7-23.4c-4.9-6.8-12.7-12.2-23.4-16.2c-10.7-4-26-6-45.8-6
		c-19.9,0-35.1,2-45.8,6c-10.7,4-18.5,9.4-23.4,16.2c-4.9,6.8-7.8,14.6-8.7,23.4C1800.5,448.7,1800.1,457.9,1800.1,467.4z"/>
</g>
<path class="st1" d="M1961.8,765.2h-156.6c-35.6,0-64.5-28.9-64.5-64.5v0c0-35.6,28.9-64.5,64.5-64.5h156.6
	c35.6,0,64.5,28.9,64.5,64.5v0C2026.3,736.4,1997.4,765.2,1961.8,765.2z"/>
<g>
	<path class="st2" d="M1804.4,739.5v-73.7h19.8v56.1h50.7v17.6H1804.4z"/>
	<path class="st2" d="M1958.5,683.4h-50.7v11h39.7V712h-39.7v9.9h50.7v17.6H1888v-73.7h70.5V683.4z"/>
</g>
<g>
	<path class="st0" d="M2707.1,664.7c-34.8,28.4-74.3,46.4-118.4,54.4c-6.5,1.2-13.2,1.5-19.8,2.5c-3.4,0.5-4.7-0.3-4.6-4
		c0.2-11.3,0.2-22.6,0-34c-0.1-8.2-3.8-14.5-11.2-18.1c-7-3.4-14-2.9-20.3,1.7c-5.8,4.2-8.4,10.1-8.4,17.2c0,10.8-0.2,21.7,0.1,32.5
		c0.1,4.5-1.4,5.1-5.4,4.7c-51.8-5.2-97.9-24.5-138-57.4c-46.8-38.4-76.8-87.3-89.8-146.5c-2.1-9.6-3.5-19.3-4.6-29
		c-0.4-3.6,0.4-5.1,4.4-4.9c5.8,0.3,11.6,0.1,17.5,0.1v0c5.8,0,11.7,0.2,17.5,0c10.7-0.3,19.1-9.2,19-19.8
		c-0.1-10.6-8.6-19.6-19.2-19.8c-11.1-0.2-22.3-0.3-33.4,0c-4.9,0.2-6.2-1.1-5.6-6c4.3-37.5,15.5-72.8,34.9-105.2
		c31.3-52.2,75.6-89.2,132.3-111.2c21.4-8.3,43.6-13.1,66.4-15.4c3.7-0.4,4.1,1,4,4c-0.1,11.5-0.3,23,0,34.5
		c0.4,15.5,16.3,24.8,29.6,17.3c6.9-3.9,10.3-10.1,10.3-18.1c0-10.8,0.2-21.6-0.1-32.5c-0.1-4.3,0.6-5.7,5.4-5
		c65.2,8.4,118.3,33.9,159.1,76.5h53.3c-13.2-17.2-28.5-33.1-45.7-47.8c-1.9-1.6-2.9-3.3-3.4-5.8c-12.1-57.8-24.2-115.6-36.5-173.3
		c-6.2-29.3-31.3-51.2-63-50.6c-29.6,0.6-59.3,0.1-88.9,0.1c-30,0-59.9,0-89.9,0c-5.2,0-10.3,0.1-15.4,1.4
		c-26.6,6.8-42.1,24-47.7,50.6c-11.8,56.5-23.7,112.9-35.5,169.4c-0.7,3.5-2.2,5.9-4.9,8.2c-37.5,32.5-65.9,71.6-84.4,117.7
		c-17.4,43.5-24,88.7-20.3,135.4c2.1,26.6,7.7,52.3,16.8,77.2c18.3,50.2,48,92.5,88.8,127c2,1.7,3.1,3.6,3.7,6.2
		c12.1,57.9,24.3,115.9,36.6,173.8c2.5,11.8,7.9,22.2,16.3,30.9c12.8,13.1,28.8,18,46.6,18c58.8,0.1,117.5,0,176.3,0
		c34.1,0,57.7-19.5,64.6-52.8c11.7-56.5,23.8-112.9,35.6-169.4c0.7-3.2,2.1-5.3,4.5-7.3c14.7-12.1,27.9-25.7,39.8-40.5
		c1.9-2.3,3.7-4.7,5.5-7.1h-52.4C2722.3,651.6,2715,658.3,2707.1,664.7z M2409.8,168.3c7.5-34.9,15.1-69.9,22.6-104.8
		c2.6-12,9.8-18.1,22.1-18.1c60.2-0.1,120.5-0.1,180.8,0c12,0,19.7,6.5,22.2,18.2c9.5,44,19,88.1,28.5,132.1
		c0.3,1.3,0.3,2.6,0.6,4.5c-94.4-46.4-188.4-47.1-283.4,0C2405.4,189.1,2407.6,178.7,2409.8,168.3z M2679.3,758.3
		c-7.6,35.4-15.2,70.9-22.9,106.3c-2.6,12.2-9.8,18-22.1,18c-60.2,0-120.5,0-180.7,0c-12,0-19.6-6.2-22.2-18
		c-9.6-44.2-19-88.4-28.5-132.6c-0.2-1.1-0.2-2.2-0.4-4.1c94.4,46.7,188.4,47.3,283.4-0.1C2683.5,738.5,2681.4,748.4,2679.3,758.3z"
		/>
</g>
<text transform="matrix(1 0 0 1 2407.0854 593.7739)" class="st1" style="font-family:'GetVoIPGrotesque'; font-size:377px;">CONTRO</text>
<path class="st1" d="M4200.1,765.3h-156.6c-35.6,0-64.5-28.9-64.5-64.5v0c0-35.6,28.9-64.5,64.5-64.5h156.6
	c35.6,0,64.5,28.9,64.5,64.5v0C4264.6,736.4,4235.7,765.3,4200.1,765.3z"/>
<text transform="matrix(1 0 0 1 4034.9573 739.6002)" class="st2" style="font-family:'GetVoIPGrotesque'; font-size:110px;">LE</text>
</svg>
